<svg width="81" height="81" viewBox="0 0 81 81" fill="none" xmlns="http://www.w3.org/2000/svg">
<mask id="mask0_120_1437" style="mask-type:luminance" maskUnits="userSpaceOnUse" x="0" y="0" width="81" height="81">
<path d="M0 0H80.7522V80.2582H0V0Z" fill="white"/>
</mask>
<g mask="url(#mask0_120_1437)">
<path d="M80.3813 0C80.8636 0.14623 80.5347 1.82677 80.5269 2.24109C80.1169 24.0139 80.848 45.831 80.5269 67.6082C80.5458 71.4678 80.858 75.6331 80.6369 79.4816C80.5947 80.215 80.5069 80.1851 79.7858 80.2305C78.9169 80.2859 78.0391 80.1308 77.1824 80.2305C51.7891 80.2715 26.3569 80.1552 0.985779 80.2349C0.813557 80.2349 0.034668 80.1341 0.034668 79.9768V11.9244C0.034668 11.9034 0.131335 11.4924 0.273557 11.5843C3.32133 12.7464 6.68022 12.8273 9.84689 13.6193C13.9191 14.6374 18.4791 16.7134 21.1569 20.0092C21.5947 20.5487 22.5436 22.2059 23.0936 22.3788C23.2602 22.4297 23.4624 22.4552 23.5702 22.2846C23.7202 22.0475 23.6924 20.2141 23.6669 19.802C23.3036 13.9794 18.508 11.1567 13.4502 9.62903C11.2724 8.971 8.53356 8.6453 6.488 7.88535C5.52356 7.52753 5.508 7.22288 6.498 6.89054C11.0002 5.37728 19.0758 6.74653 23.558 8.23652C24.3858 8.51126 27.4358 9.84506 28.0091 9.77637C28.7269 9.68996 30.278 8.26865 30.9391 7.80005C36.4313 3.8895 42.1147 0.0797619 49.2491 0.494081C55.7413 0.870734 60.0913 6.7565 61.6613 12.5714C62.3458 15.1116 62.3369 17.6916 62.4113 20.3061C62.8436 21.0682 63.3436 19.9549 63.5136 19.5095C65.4536 14.4413 64.0024 6.58922 60.7913 2.26214C60.5191 1.89545 59.0336 0.415427 59.018 0.234854C59.0091 0.130721 59.1113 0.0011078 59.1569 0.0011078H80.3824L80.3813 0ZM24.5302 14.2984C23.4791 14.3483 24.2413 15.8937 24.4791 16.3999C27.2602 22.3322 33.6758 28.5415 38.7924 32.5694C46.508 38.6435 58.4924 45.9373 68.3791 47.0861C71.178 47.4118 73.5824 47.5979 75.6302 45.4554C78.1402 42.831 75.8747 41.6579 74.2269 39.6605C72.948 38.1107 71.5336 36.3515 70.3791 34.7153C66.588 29.3468 63.6669 21.1879 55.5536 21.9534C54.8847 22.0165 53.548 22.5316 54.2547 23.3459C54.558 23.6959 56.5447 23.8931 57.148 24.0549C64.0913 25.9215 65.8791 35.5118 70.2236 40.6586C70.5458 41.0408 72.3236 42.6626 72.2169 43.0426C71.7002 43.4846 70.7324 43.4359 70.0658 43.4093C63.4802 43.1468 54.3424 38.6845 48.6269 35.4398C40.178 30.643 32.3658 23.7425 26.3258 16.1562C25.9024 15.6245 25.3091 14.2619 24.5302 14.2984ZM20.7958 67.5894C19.8636 68.4845 19.648 69.8803 18.448 70.6879C16.7447 71.8356 13.1391 72.3252 11.1658 71.8777C9.63022 71.5287 6.50133 69.7163 6.34245 68.0037C6.22245 66.7064 7.45689 63.7253 7.71689 62.1888C7.928 60.9459 7.67467 59.581 8.698 58.676C9.99689 57.525 11.6558 57.2103 12.7324 55.5121C14.2169 53.1735 12.278 53.9456 10.9747 53.5081C9.39356 52.9774 9.02578 49.4369 9.148 48.0488C9.24244 46.9731 9.87911 46.0271 8.90022 45.0987C8.46356 44.6855 7.66356 44.6501 7.55022 43.951C7.23245 41.9924 9.69133 39.2584 11.2169 38.2381C14.4536 36.0712 17.6469 36.0712 17.2536 31.1858C17.1613 30.0392 16.3458 28.4883 16.8524 27.4891C17.2991 26.605 18.168 25.7908 18.6058 24.7461C19.4636 22.7 19.1147 20.4368 17.4602 18.9058C16.0069 17.562 16.4302 19.5683 16.3536 20.4058C16.2236 21.8348 15.5724 23.6871 14.6958 24.8403C14.1858 25.5127 12.7747 26.1818 12.6536 27.0005C12.5413 27.7605 13.5391 29.3313 13.7969 30.14C15.1636 34.4139 11.6769 34.3242 9.198 36.1255C6.97689 37.7396 3.99467 42.1929 5.11245 44.9824C5.60133 46.2054 6.97467 46.4092 7.14022 47.9491C7.368 50.0572 7.38911 52.2064 8.60245 54.0764C8.80133 54.3821 9.74022 55.2794 9.74356 55.429C9.76244 56.1191 7.54911 56.734 6.95245 57.3377C5.91578 58.3879 5.818 61.1032 5.49133 62.5666C4.96911 64.9063 3.42911 67.6403 4.998 69.8415C7.75467 73.7055 11.6658 74.4777 16.1713 73.5106C19.6658 72.7606 20.688 71.1653 22.7591 68.5011C23.0547 68.12 24.3436 66.6876 23.5613 66.3043C23.0613 66.0595 21.2002 67.2016 20.7947 67.5916L20.7958 67.5894ZM34.8758 65.7582C34.9136 66.969 34.8291 68.192 34.8724 69.4039C34.8802 69.6166 34.9658 69.805 34.9758 69.9988C35.0024 70.4918 34.8358 71.6949 35.1802 71.9907C35.5247 72.2864 37.0702 72.272 36.9813 71.4966L36.958 63.9325C36.3758 63.0496 35.5391 63.3487 34.7402 63.6755C33.828 64.0499 32.7302 64.5052 33.298 65.6839C33.7258 66.5724 34.7169 65.5909 34.8758 65.7582ZM44.2524 70.812C46.4502 68.541 46.1636 62.9831 42.0313 63.3586C38.278 63.701 38.3136 69.5535 42.4391 69.0539C42.7024 69.0217 42.8758 68.8943 43.1136 68.8279C43.2136 68.8002 43.3513 68.6517 43.2891 68.9021C43.1891 69.3087 42.3524 69.9202 41.9747 70.0875C41.5969 70.2558 40.358 70.4242 40.2058 70.5705C39.9236 70.8452 39.9191 72.0184 40.6391 72.138C41.7158 72.3164 43.5036 71.5852 44.2524 70.812ZM56.1813 63.393C54.5524 63.5293 53.4313 64.5706 53.7236 66.2821C53.808 66.7818 54.5058 67.514 54.4924 67.5894C54.4769 67.6824 53.5869 68.4634 53.4436 69.1436C52.6469 72.9046 59.7891 73.2048 59.6113 69.3962C59.5691 68.4933 59.0791 68.0092 58.4091 67.493C60.2902 65.3926 58.918 63.1626 56.1813 63.3919V63.393ZM46.6413 70.0487C47.1058 70.1772 49.0913 70.0487 49.7447 70.0487C49.9891 70.0487 49.7713 71.0346 49.7958 71.2961C49.8236 71.5974 49.9091 71.9763 50.248 72.0416C50.4391 72.0782 51.1547 72.0782 51.3458 72.0416C52.098 71.8965 51.6224 70.4519 51.8413 70.1406C51.9936 69.9235 52.5047 70.309 52.6013 69.5014C52.6224 69.3164 52.6347 68.6706 52.5536 68.5476C52.418 68.3438 51.8002 68.4446 51.7113 68.1898L51.6491 63.7608C50.798 63.2445 49.6069 63.2468 48.9536 64.0699C48.4113 64.7534 46.7558 67.5993 46.4047 68.4136C46.2147 68.8534 46.0402 69.8814 46.6424 70.0476L46.6413 70.0487ZM74.7024 70.2758C70.1324 70.7566 70.728 77.7169 75.6647 77.122C79.8558 76.6168 79.2658 69.7972 74.7024 70.2758Z" fill="#EB842D"/>
</g>
<path d="M56.1747 68.3726C57.5391 68.0646 58.1658 70.1484 57.0091 70.5029C55.1158 71.0811 54.8769 68.6661 56.1747 68.3726Z" fill="#EB842D"/>
<path d="M56.1747 64.8808C57.9547 64.4797 57.7581 67.3401 56.1281 66.6798C55.337 66.3586 55.2847 65.0802 56.1747 64.8808Z" fill="#EB842D"/>
<path d="M41.6159 65.3892C41.7559 65.2386 42.2237 65.0591 42.4359 65.0569C43.7148 65.0514 44.0681 67.5517 42.4359 67.555C41.3725 67.5572 41.0381 66.0096 41.6148 65.3881L41.6159 65.3892Z" fill="#EB842D"/>
<path d="M49.8945 65.7582V68.2541C49.8945 68.3083 49.85 68.3515 49.7967 68.3515H48.2922C48.2578 68.1987 48.3289 68.1178 48.3856 67.9959C48.5422 67.668 49.4078 66.188 49.61 65.9232C49.6967 65.8102 49.7134 65.7205 49.8945 65.7582Z" fill="#EB842D"/>
<path d="M74.8044 70.9737C78.3789 70.6391 78.9111 76.0286 75.4644 76.423C71.6855 76.8561 71.2622 71.306 74.8044 70.9737ZM75.5755 71.8444C74.99 71.7403 74.1422 71.9209 73.5233 71.8444V75.437H74.5244V74.0401C75.4144 73.8529 75.5 75.1911 75.8255 75.3883C76.0467 75.5234 76.5567 75.396 76.8267 75.4359C76.5078 74.8787 76.3367 74.214 75.8267 73.7886C75.7622 73.5826 75.97 73.6579 76.0755 73.546C76.6011 72.9999 76.3567 71.984 75.5755 71.8444Z" fill="#EB842D"/>
</svg>
