<svg width="419" height="150" viewBox="0 0 419 150" fill="none" xmlns="http://www.w3.org/2000/svg">
<mask id="mask0_19_7" style="mask-type:luminance" maskUnits="userSpaceOnUse" x="1" y="98" width="76" height="13">
<path d="M1.62854 98.7209H76.4444V110.983H1.62854V98.7209Z" fill="white"/>
</mask>
<g mask="url(#mask0_19_7)">
<mask id="mask1_19_7" style="mask-type:luminance" maskUnits="userSpaceOnUse" x="1" y="98" width="76" height="13">
<path d="M1.62854 98.7209L3.10348 105.694L54.3469 105.735C61.5033 106.773 72.3952 104.428 76.4202 110.935C76.3771 105.127 67.219 103.535 62.256 101.105C61.3205 100.648 56.1684 98.7209 55.5489 98.7209H1.62854Z" fill="white"/>
</mask>
<g mask="url(#mask1_19_7)">
<mask id="mask2_19_7" style="mask-type:luminance" maskUnits="userSpaceOnUse" x="1" y="98" width="76" height="14">
<path d="M76.6868 98.5118H1.62476V111.159H76.6868V98.5118Z" fill="white"/>
</mask>
<g mask="url(#mask2_19_7)">
<mask id="mask3_19_7" style="mask-type:luminance" maskUnits="userSpaceOnUse" x="1" y="98" width="76" height="13">
<path d="M1.62854 98.7208H76.4444V110.972H1.62854V98.7208Z" fill="white"/>
</mask>
<g mask="url(#mask3_19_7)">
<mask id="mask4_19_7" style="mask-type:luminance" maskUnits="userSpaceOnUse" x="1" y="98" width="76" height="13">
<path d="M1.62854 98.7208L3.10348 105.694L54.3469 105.734C61.5033 106.773 72.3952 104.428 76.4202 110.935C76.3771 105.127 67.219 103.535 62.256 101.105C61.3205 100.647 56.1684 98.7208 55.5489 98.7208H1.62854Z" fill="white"/>
</mask>
<g mask="url(#mask4_19_7)">
<path d="M1.62854 98.7208H76.3974V110.935H1.62854V98.7208Z" fill="#332D24"/>
</g>
</g>
</g>
</g>
</g>
<mask id="mask5_19_7" style="mask-type:luminance" maskUnits="userSpaceOnUse" x="53" y="26" width="329" height="87">
<path d="M53.4634 26.0151H381.159V112.379H53.4634V26.0151Z" fill="white"/>
</mask>
<g mask="url(#mask5_19_7)">
<path d="M283.618 88.903C282.733 90.4904 283.84 92.4651 285.623 92.4651H333.911C342.194 92.4651 353.365 81.5487 356.687 74.158C366.074 53.2677 353.605 42.8818 333.489 46.3282C311.738 50.0541 294.257 69.8042 283.618 88.903ZM156.303 45.7769C140.57 46.583 121.298 57.7971 119.714 75.3736C118.031 94.0629 135.95 94.0083 149.389 93.0671C163.763 92.0595 176.233 81.8087 177.797 66.649C179.443 50.7015 170.916 45.0281 156.303 45.7769ZM53.4687 98.8288C53.9231 98.8288 54.5705 98.8431 54.903 98.8483C55.0198 98.8496 55.1353 98.8431 55.2495 98.8262L97.7512 92.8577C99.1614 92.6601 100.064 91.2249 99.6653 89.8248C96.6634 79.3023 99.1957 67.156 104.207 57.7412C117.068 33.5826 148.258 21.998 173.921 27.3736C201.398 33.1289 204.202 67.8035 191.135 88.8094C190.15 90.3929 191.246 92.4651 193.078 92.4651H209.188C211.667 92.4651 215.592 88.5663 216.654 86.2328C220.928 76.8569 220.678 57.4097 227.792 50.2114C229.428 48.5538 235.865 45.0242 237.97 45.0242H245.469C246.979 45.0242 248.086 46.4829 247.715 47.9844C245.438 57.2381 242.294 66.298 240.106 75.5621C239.456 78.3142 238.207 81.9075 238.206 84.6545C238.201 95.2589 252.935 94.8247 256.978 86.4928C262.306 75.5088 260.869 54.3845 272.302 47.8206C273.542 47.1095 277.996 45.2998 279.097 45.2998L287.407 45.0242C288.53 45.0242 289.358 46.1006 289.096 47.22C288.537 49.6211 291.479 51.1942 293.074 49.3468C298.511 43.0547 305.074 37.757 312.37 33.9336C343.273 17.743 390.759 24.6514 379.414 70.8442C374.624 90.3448 356.457 109.949 336.189 111.577C304.715 114.106 270.06 109.666 238.239 111.535C238.064 111.546 237.892 111.537 237.72 111.507C233.95 110.833 229.281 109.251 226.979 105.936C226.208 104.825 224.641 104.649 223.619 105.523C219.862 108.738 215.466 111.052 210.469 111.564C210.381 111.573 210.292 111.577 210.203 111.577L61.4831 111.583C61.247 111.583 60.8053 111.625 60.573 111.576C58.7097 111.179 54.2785 113.943 53.5182 101.808" fill="#EB842D"/>
</g>
<mask id="mask6_19_7" style="mask-type:luminance" maskUnits="userSpaceOnUse" x="348" y="43" width="71" height="96">
<path d="M348.987 43.6877H418.528V138.304H348.987V43.6877Z" fill="white"/>
</mask>
<g mask="url(#mask6_19_7)">
<mask id="mask7_19_7" style="mask-type:luminance" maskUnits="userSpaceOnUse" x="348" y="43" width="71" height="96">
<path d="M418.477 43.8267L402.494 103.545C394.232 128.186 373.802 139.054 348.987 138.138L353.559 119.1C370.436 118.441 378.855 109.911 383.732 94.1641C388.845 77.6536 392.042 60.393 397.009 43.8267H418.477Z" fill="white"/>
</mask>
<g mask="url(#mask7_19_7)">
<mask id="mask8_19_7" style="mask-type:luminance" maskUnits="userSpaceOnUse" x="348" y="43" width="71" height="96">
<path d="M418.528 43.598H348.665V138.449H418.528V43.598Z" fill="white"/>
</mask>
<g mask="url(#mask8_19_7)">
<mask id="mask9_19_7" style="mask-type:luminance" maskUnits="userSpaceOnUse" x="348" y="43" width="71" height="96">
<path d="M348.987 43.7981H418.501V138.304H348.987V43.7981Z" fill="white"/>
</mask>
<g mask="url(#mask9_19_7)">
<mask id="mask10_19_7" style="mask-type:luminance" maskUnits="userSpaceOnUse" x="348" y="43" width="71" height="96">
<path d="M418.477 43.8268L402.494 103.545C394.232 128.186 373.802 139.054 348.987 138.138L353.559 119.1C370.436 118.441 378.856 109.912 383.732 94.1642C388.845 77.6537 392.042 60.3931 397.009 43.8268H418.477Z" fill="white"/>
</mask>
<g mask="url(#mask10_19_7)">
<path d="M348.987 43.8268H418.477V138.166H348.987V43.8268Z" fill="#EB842D"/>
</g>
</g>
</g>
</g>
</g>
<mask id="mask11_19_7" style="mask-type:luminance" maskUnits="userSpaceOnUse" x="0" y="9" width="126" height="89">
<path d="M0 9.81146H125.194V97.7693H0V9.81146Z" fill="white"/>
</mask>
<g mask="url(#mask11_19_7)">
<mask id="mask12_19_7" style="mask-type:luminance" maskUnits="userSpaceOnUse" x="0" y="9" width="126" height="89">
<path d="M1.0218 97.6549H13.4484C12.9114 88.1633 10.4718 80.4307 19.8444 74.9914C26.7127 71.0055 42.7898 66.7738 46.6904 60.2581C49.4918 55.5792 58.8593 33.5345 63.689 30.8096C69.453 27.5582 86.2866 30.2376 93.8746 29.3289C103.221 28.2109 124.113 20.5016 125.185 11.1284C125.328 9.87515 123.857 10.468 123.093 10.3211C118.611 9.45264 103.581 10.2808 99.6068 10.325C88.5193 10.4472 66.5996 8.0148 57.3818 12.7794C45.6001 18.8714 36.5156 46.271 30.4064 56.8845C19.5398 64.0971 4.19762 65.2476 0.712084 80.2721C-0.643542 86.1184 0.333829 91.7969 1.0218 97.6549Z" fill="white"/>
</mask>
<g mask="url(#mask12_19_7)">
<mask id="mask13_19_7" style="mask-type:luminance" maskUnits="userSpaceOnUse" x="0" y="9" width="126" height="89">
<path d="M125.428 9.65173H0V97.8462H125.428V9.65173Z" fill="white"/>
</mask>
<g mask="url(#mask13_19_7)">
<mask id="mask14_19_7" style="mask-type:luminance" maskUnits="userSpaceOnUse" x="0" y="9" width="126" height="89">
<path d="M0.0253906 9.81146H125.194V97.7134H0.0253906V9.81146Z" fill="white"/>
</mask>
<g mask="url(#mask14_19_7)">
<mask id="mask15_19_7" style="mask-type:luminance" maskUnits="userSpaceOnUse" x="0" y="9" width="126" height="89">
<path d="M1.02192 97.6549H13.4485C12.9116 88.1633 10.472 80.4307 19.8446 74.9914C26.7128 71.0055 42.7899 66.7738 46.6905 60.2581C49.4919 55.5792 58.8594 33.5345 63.6892 30.8096C69.4531 27.5582 86.2867 30.2376 93.8747 29.3289C103.221 28.2109 124.114 20.5016 125.185 11.1284C125.328 9.87515 123.857 10.468 123.093 10.3211C118.611 9.45264 103.581 10.2808 99.6069 10.325C88.5194 10.4472 66.5997 8.0148 57.3819 12.7794C45.6002 18.8714 36.5157 46.271 30.4065 56.8845C19.5399 64.0971 4.19774 65.2476 0.712206 80.2721C-0.643419 86.1184 0.333951 91.7969 1.02192 97.6549Z" fill="white"/>
</mask>
<g mask="url(#mask15_19_7)">
<path d="M0.0317383 9.81146H125.194V97.6315H0.0317383V9.81146Z" fill="#EB842D"/>
</g>
</g>
</g>
</g>
</g>
<mask id="mask16_19_7" style="mask-type:luminance" maskUnits="userSpaceOnUse" x="37" y="112" width="35" height="34">
<path d="M37.432 112.691H71.0637V145.639H37.432V112.691Z" fill="white"/>
</mask>
<g mask="url(#mask16_19_7)">
<path d="M56.0069 136.908C65.0736 136.5 62.7368 123.597 55.3583 122.023C42.2349 119.223 45.3168 137.391 56.0069 136.908ZM70.9543 129.715C72.7415 148.706 50.0945 149.987 40.9008 136.901C33.0095 125.667 39.2177 111.46 53.0723 112.777C61.4307 113.571 70.1166 120.805 70.9543 129.715Z" fill="#332D24"/>
</g>
<mask id="mask17_19_7" style="mask-type:luminance" maskUnits="userSpaceOnUse" x="3" y="108" width="37" height="16">
<path d="M3.85986 108.504H39.5009V123.185H3.85986V108.504Z" fill="white"/>
</mask>
<g mask="url(#mask17_19_7)">
<mask id="mask18_19_7" style="mask-type:luminance" maskUnits="userSpaceOnUse" x="3" y="108" width="37" height="16">
<path d="M3.85986 108.561C6.30202 122.231 20.5386 123.662 31.8114 123.08C32.7266 117.12 34.7003 112.237 39.4945 108.566L3.85986 108.561Z" fill="white"/>
</mask>
<g mask="url(#mask18_19_7)">
<mask id="mask19_19_7" style="mask-type:luminance" maskUnits="userSpaceOnUse" x="3" y="108" width="37" height="16">
<path d="M39.6431 108.496H3.57434V123.472H39.6431V108.496Z" fill="white"/>
</mask>
<g mask="url(#mask19_19_7)">
<mask id="mask20_19_7" style="mask-type:luminance" maskUnits="userSpaceOnUse" x="3" y="108" width="37" height="16">
<path d="M3.85986 108.504H39.5009V123.185H3.85986V108.504Z" fill="white"/>
</mask>
<g mask="url(#mask20_19_7)">
<mask id="mask21_19_7" style="mask-type:luminance" maskUnits="userSpaceOnUse" x="3" y="108" width="37" height="16">
<path d="M3.85986 108.561C6.30202 122.231 20.5386 123.662 31.8114 123.079C32.7266 117.12 34.7003 112.237 39.4945 108.566L3.85986 108.561Z" fill="white"/>
</mask>
<g mask="url(#mask21_19_7)">
<path d="M3.85986 108.561H39.5009V123.185H3.85986V108.561Z" fill="#332D24"/>
</g>
</g>
</g>
</g>
</g>
<mask id="mask22_19_7" style="mask-type:luminance" maskUnits="userSpaceOnUse" x="144" y="52" width="26" height="25">
<path d="M144.002 52.4877H169.104V76.45H144.002V52.4877Z" fill="white"/>
</mask>
<g mask="url(#mask22_19_7)">
<path d="M146.441 73.6991C148.214 75.5127 151.171 72.0637 149.171 70.6219C147.214 69.2114 144.959 72.1859 146.441 73.6991ZM168.079 70.9443C168.761 71.1419 169.244 72.754 168.924 73.2467C168.063 74.5727 154.835 73.3416 152.259 73.8421C150.591 74.1671 145.938 79.288 144.297 73.8538C143.006 69.5767 146.189 68.8435 149.46 68.0986L161.294 52.4877C162.112 53.1195 162.207 53.3484 162.046 54.3845C161.657 56.8806 152.781 66.2655 151.444 69.5624L152.248 70.9443H168.079Z" fill="#332D24"/>
</g>
<mask id="mask23_19_7" style="mask-type:luminance" maskUnits="userSpaceOnUse" x="153" y="0" width="23" height="23">
<path d="M153.049 0H175.47V22.189H153.049V0Z" fill="white"/>
</mask>
<g mask="url(#mask23_19_7)">
<mask id="mask24_19_7" style="mask-type:luminance" maskUnits="userSpaceOnUse" x="153" y="0" width="23" height="23">
<path d="M162.044 0.210577C171.22 -1.36767 178.28 7.36467 174.278 16.2062C171.956 21.3362 167.064 22.6635 161.91 22.0512C150.247 20.6679 149.948 2.29194 162.044 0.210577Z" fill="white"/>
</mask>
<g mask="url(#mask24_19_7)">
<mask id="mask25_19_7" style="mask-type:luminance" maskUnits="userSpaceOnUse" x="153" y="-1" width="23" height="24">
<path d="M175.47 -0.00012207H153.049V22.2981H175.47V-0.00012207Z" fill="white"/>
</mask>
<g mask="url(#mask25_19_7)">
<mask id="mask26_19_7" style="mask-type:luminance" maskUnits="userSpaceOnUse" x="153" y="-1" width="23" height="24">
<path d="M153.049 -0.00012207H175.47V22.1889H153.049V-0.00012207Z" fill="white"/>
</mask>
<g mask="url(#mask26_19_7)">
<mask id="mask27_19_7" style="mask-type:luminance" maskUnits="userSpaceOnUse" x="153" y="0" width="23" height="23">
<path d="M162.044 0.210577C171.22 -1.36767 178.28 7.36467 174.278 16.2062C171.956 21.3362 167.064 22.6635 161.91 22.0512C150.247 20.6679 149.948 2.29194 162.044 0.210577Z" fill="white"/>
</mask>
<g mask="url(#mask27_19_7)">
<path d="M153.068 0.0247803H175.385V22.1891H153.068V0.0247803Z" fill="#332D24"/>
</g>
</g>
</g>
</g>
</g>
<mask id="mask28_19_7" style="mask-type:luminance" maskUnits="userSpaceOnUse" x="199" y="116" width="34" height="34">
<path d="M199.055 116.186H232.687V149.099H199.055V116.186Z" fill="white"/>
</mask>
<g mask="url(#mask28_19_7)">
<path d="M217.63 140.402C226.698 139.993 224.361 127.091 216.983 125.517C203.858 122.715 206.941 140.883 217.63 140.402ZM232.579 133.208C234.365 152.199 211.719 153.481 202.525 140.393C194.634 129.16 200.841 114.954 214.697 116.27C223.055 117.064 231.741 124.297 232.579 133.208Z" fill="#332D24"/>
</g>
<mask id="mask29_19_7" style="mask-type:luminance" maskUnits="userSpaceOnUse" x="161" y="116" width="35" height="34">
<path d="M161.373 116.186H195.004V149.099H161.373V116.186Z" fill="white"/>
</mask>
<g mask="url(#mask29_19_7)">
<path d="M179.948 140.402C189.014 139.993 186.677 127.091 179.299 125.517C166.176 122.715 169.257 140.883 179.948 140.402ZM194.895 133.208C196.682 152.199 174.035 153.481 164.842 140.393C156.95 129.16 163.158 114.954 177.013 116.27C185.371 117.064 194.057 124.297 194.895 133.208Z" fill="#332D24"/>
</g>
</svg>
